<svg id="Calque_1" data-name="Calque 1" xmlns="http://www.w3.org/2000/svg" viewBox="0 0 266 117"><defs><style>.cls-1{fill:#2b6cb0;}</style></defs><title>Plan de travail 1</title><path class="cls-1" d="M105,94q1.62-4,3.26-8c2.21-5.4,4.33-10.82,6.67-16.16.84-1.91.38-2.74-1.39-3.63-8.34-4.17-16.61-8.47-24.9-12.74-.56-.29-1.09-.65-2.07-1.24l10.25-2.2-.06-.73a82.18,82.18,0,0,0-9,.06C82.46,50,78,48.31,73.52,45.78c-4.68-2.68-9.56-5-14.38-8.08l17.47-3.76v-.52c-.75,0-1.51-.12-2.26-.12-7.5,0-15,.05-22.49,0a10,10,0,0,1-4.28-1C36.39,26.57,25.26,20.75,14.1,15c-1.52-.79-3.08-1.51-4.62-2.27l.1-.68H87.23A21.16,21.16,0,0,1,103,18.43c4.92,5,9.91,9.88,14.85,14.83.52.51,1,1.1,1.73,2-3.51,1.15-5.74,4.16-9.79,4-3.84-.18-6.92,2-9.39,5.46,11.29,1.06,20.1,7.18,29.34,13.07.33-1.72.58-3.22.91-4.71a21,21,0,0,1,6.1-10.92c7.3-7.05,14.6-14.11,21.51-21.52A25.75,25.75,0,0,1,178.59,12c20.41.25,40.83.08,61.24.08h13.32l.11.69c-4.49,2.44-9,4.93-13.5,7.3-7.82,4.08-15.66,8.13-23.56,12.06a11.43,11.43,0,0,1-4.74,1.17c-7.4.12-14.81.06-22.22.07H186.8l-.06.6,17.91,3.87a14.44,14.44,0,0,1-1.6,1.18c-6.14,3.16-12.26,6.34-18.44,9.4a10,10,0,0,1-4,.94c-3.83.12-7.67,0-11.5,0h-2.31l-.05.7L177,52.31c-3.86,2-7.12,3.76-10.39,5.45-5.63,2.91-11.23,5.84-16.9,8.65-1.72.85-2,1.7-1.22,3.49,3.41,8,6.66,16.06,9.51,24.5-3.54-1.74-7.15-3.37-10.6-5.29-1.43-.79-2.15-.6-3.14.54-4.06,4.74-8.19,9.41-12.64,14.5-2.31-2.6-4.49-5-6.64-7.5s-4.54-5.1-6.69-7.75c-1.07-1.33-1.93-.75-3-.14-3.29,1.89-6.6,3.74-9.9,5.61Z"/></svg>